# xmcd CD database file
#
# Track frame offsets:
#	150
#	12466
#	32835
#	54624
#	73295
#	85921
#	113684
#	122458
#	139853
#	157391
#	168203
#	180277
#	204770
#	242719
#	254423
#	275722
#
# Disc length: 3695 seconds
#
# Revision: 0
# Processed by: cddbd v1.5.1PL0 Copyright (c) Steve Scherf et al.
# Submitted via: CDex 1.51
#
DISCID=e20e6d10
DTITLE=key - CLANNAD -クラナド- ORIGINAL SOUND TRACK Disc3
DYEAR=1900
DGENRE=Game
TTITLE0=夏時間
TTITLE1=カントリートレイン
TTITLE2=雪野原
TTITLE3=願いが叶う場所 II
TTITLE4=願いが叶う場所
TTITLE5=幻想
TTITLE6=幻想 II
TTITLE7=月の位相
TTITLE8=無間
TTITLE9=汐
TTITLE10=メグメル
TTITLE11=Ana
TTITLE12=Ana (Long Version)
TTITLE13=影二つ
TTITLE14=小さな手のひら
TTITLE15=マ・メール・ロワ
EXTD=
EXTT0=
EXTT1=
EXTT2=
EXTT3=
EXTT4=
EXTT5=
EXTT6=
EXTT7=
EXTT8=
EXTT9=
EXTT10=
EXTT11=
EXTT12=
EXTT13=
EXTT14=
EXTT15=
PLAYORDER=
